# xmcd CD database file
#
# Track frame offsets:
#	296
#	17876
#	33084
#	52599
#	67269
#	88688
#	108889
#	133419
#	160388
#	174334
#	198201
#
# Disc length: 2951 seconds
#
# Revision: 1
# Processed by: cddbd v1.5.2PL0 Copyright (c) Steve Scherf et al.
# Submitted via: CDex 1.51
#
DISCID=8d0b840b
DTITLE=Blues Club Band - Volume I
DYEAR=2011
DGENRE=Blues
TTITLE0=TOO LATE
TTITLE1=CLUBHOUSE
TTITLE2=MELLOW DOWN EASY
TTITLE3=CRAZY MIXED UP WORLD
TTITLE4=THIS IS UP
TTITLE5=YOUR FUNERAL MY TRIAL
TTITLE6=BRING IT TO JEROME
TTITLE7=ROLLIN and TUMBLIN
TTITLE8=I AIN'T GOT YOU
TTITLE9=SHAKE YOUR HIPS
TTITLE10=BACK DOOR MAN
EXTD=YEAR: 2011
EXTT0=
EXTT1=
EXTT2=
EXTT3=
EXTT4=
EXTT5=
EXTT6=
EXTT7=
EXTT8=
EXTT9=
EXTT10=
PLAYORDER=
